<svg width="9" height="11" viewBox="0 0 9 11" fill="none" xmlns="http://www.w3.org/2000/svg">
<g clip-path="url(#clip0_0_72)">
<path d="M8.14616 5.80725C8.14616 6.01558 8.2502 6.43225 8.45827 7.05725C8.66634 7.68225 8.77037 8.09892 8.77037 8.30725C8.77037 8.73043 8.70698 9.13082 8.58018 9.50842C8.45339 9.88603 8.26808 10.1969 8.02424 10.441C7.78041 10.6852 7.50894 10.8073 7.20984 10.8073H2.84034C2.75581 10.8073 2.68266 10.7763 2.62089 10.7145C2.55912 10.6526 2.52823 10.5794 2.52823 10.4948C2.52823 10.4101 2.55912 10.3369 2.62089 10.275C2.68266 10.2132 2.75581 10.1823 2.84034 10.1823C2.93137 10.1823 3.00614 10.153 3.06466 10.0944C3.12318 10.0358 3.15244 9.9609 3.15244 9.86975C3.15244 9.70048 3.08742 9.50354 2.95738 9.27893C2.82733 9.05432 2.67128 8.8232 2.48922 8.58557C2.30715 8.34794 2.12509 8.10217 1.94303 7.84827C1.76097 7.59436 1.60491 7.31441 1.47487 7.00842C1.34482 6.70243 1.2798 6.40621 1.2798 6.11975C1.2798 5.63147 1.47487 5.22782 1.865 4.90881C1.78698 4.67444 1.59191 4.55725 1.2798 4.55725C1.09124 4.55725 0.894544 4.49052 0.689723 4.35706C0.484903 4.22359 0.323973 4.08362 0.206932 3.93713C0.0898922 3.79065 0.0313721 3.68486 0.0313721 3.61975C0.0313721 3.53512 0.0622577 3.46187 0.124029 3.40002C0.1858 3.33818 0.25895 3.30725 0.343479 3.30725C0.395497 3.30725 0.450766 3.26168 0.509286 3.17053C0.567806 3.07939 0.634454 2.96545 0.70923 2.82874C0.784006 2.69202 0.87016 2.55367 0.967694 2.4137C1.06523 2.27372 1.19527 2.14351 1.35783 2.02307C1.52038 1.90263 1.70245 1.81962 1.90402 1.77405V0.807251C2.05357 0.807251 2.22913 0.922811 2.4307 1.15393C2.63227 1.38505 2.76231 1.62431 2.82083 1.8717C3.13294 2.00191 3.37027 2.22815 3.53283 2.55041C3.69538 2.87268 3.77666 3.22913 3.77666 3.61975C3.77666 3.80855 3.8173 3.98759 3.89858 4.15686C3.97985 4.32613 4.09527 4.4775 4.24482 4.61096C4.39437 4.74443 4.51629 4.84534 4.61057 4.9137C4.70485 4.98206 4.82352 5.05855 4.96657 5.14319C4.99258 5.16272 5.01208 5.17574 5.02509 5.18225C5.40222 5.39709 5.71432 5.60543 5.96141 5.80725C6.41006 6.17834 6.78232 6.64384 7.07817 7.20373C7.37402 7.76363 7.52195 8.23564 7.52195 8.61975C7.52195 8.64579 7.5252 8.67509 7.5317 8.70764C7.5382 8.74019 7.56746 8.78577 7.61948 8.84436C7.6715 8.90295 7.74302 8.93225 7.83405 8.93225C7.92508 8.93225 7.99986 8.88179 8.05838 8.78088C8.1169 8.67997 8.14616 8.52209 8.14616 8.30725C8.14616 8.07939 8.1039 7.85152 8.01937 7.62366C7.93484 7.39579 7.8308 7.17932 7.70726 6.97424C7.58372 6.76916 7.46017 6.55595 7.33663 6.33459C7.21309 6.11324 7.10905 5.84794 7.02453 5.5387C6.94 5.22945 6.89773 4.9023 6.89773 4.55725C6.89773 4.24475 7.02778 3.95829 7.28787 3.69788C7.54796 3.43746 7.83405 3.30725 8.14616 3.30725C8.32172 3.30725 8.46965 3.36747 8.58994 3.48791C8.71023 3.60836 8.77037 3.75647 8.77037 3.93225C8.77037 4.03642 8.75087 4.12919 8.71185 4.21057C8.67284 4.29195 8.62245 4.36682 8.56068 4.43518C8.49891 4.50354 8.46477 4.54423 8.45827 4.55725C8.2502 4.9023 8.14616 5.31897 8.14616 5.80725Z" fill="#818AF9"/>
</g>
<defs>
<clipPath id="clip0_0_72">
<rect width="8.739" height="10" fill="white" transform="translate(0.0313721 0.807251)"/>
</clipPath>
</defs>
</svg>
