<svg width="11" height="11" viewBox="0 0 11 11" fill="none" xmlns="http://www.w3.org/2000/svg">
<g clip-path="url(#clip0_0_74)">
<path d="M9.54154 10.8073C9.35237 10.8073 9.16809 10.7682 8.9887 10.6901C8.80931 10.6119 8.67722 10.5371 8.59242 10.4655C8.50762 10.3938 8.40651 10.2994 8.28909 10.1823C7.87161 10.5989 7.24539 10.8073 6.41042 10.8073H1.71375C1.62895 10.8073 1.55556 10.7763 1.49359 10.7145C1.43162 10.6526 1.40064 10.5794 1.40064 10.4948C1.40064 10.4101 1.43162 10.3369 1.49359 10.275C1.55556 10.2132 1.62895 10.1823 1.71375 10.1823C1.79203 10.1823 1.88498 10.109 1.99261 9.96252C2.10025 9.81604 2.20299 9.63049 2.30083 9.40588C2.39868 9.18127 2.48185 8.91272 2.55034 8.60022C2.61884 8.28772 2.65308 7.98173 2.65308 7.68225C2.65308 7.51298 2.63188 7.36975 2.58948 7.25256C2.54708 7.13538 2.4949 7.03446 2.43293 6.94983C2.37096 6.86519 2.30899 6.77242 2.24702 6.67151C2.18505 6.5706 2.13286 6.42086 2.09046 6.22229C2.04806 6.02372 2.02686 5.78121 2.02686 5.49475C2.02686 5.32548 2.04806 5.18713 2.09046 5.07971C2.13286 4.97229 2.18505 4.89091 2.24702 4.83557C2.30899 4.78023 2.37096 4.72327 2.43293 4.66467C2.4949 4.60608 2.54708 4.51656 2.58948 4.39612C2.63188 4.27568 2.65308 4.12105 2.65308 3.93225C2.65308 3.51558 2.44434 3.30725 2.02686 3.30725C1.73332 3.30725 1.45119 3.19495 1.18048 2.97034C0.90977 2.74573 0.774414 2.54553 0.774414 2.36975C0.774414 2.22001 0.844538 2.07841 0.984786 1.94495C1.12503 1.81148 1.26365 1.74475 1.40064 1.74475C1.51153 1.74475 1.61427 1.7122 1.70886 1.64709C1.80344 1.58199 1.89314 1.50387 1.97794 1.41272C2.06274 1.32157 2.15569 1.23043 2.2568 1.13928C2.35791 1.04814 2.4949 0.970011 2.66776 0.904907C2.84062 0.839803 3.04447 0.807251 3.27931 0.807251C3.58589 0.807251 3.83541 0.843058 4.02784 0.914673C4.22027 0.986287 4.36378 1.07906 4.45837 1.19299C4.55295 1.30693 4.6296 1.46643 4.68831 1.67151C4.74702 1.87659 4.78779 2.08004 4.81062 2.28186C4.83345 2.48368 4.87422 2.74084 4.93293 3.05334C4.99164 3.36584 5.06665 3.65881 5.15798 3.93225C5.28192 4.30334 5.57383 4.77698 6.03371 5.35315C6.49359 5.92932 6.8279 6.28902 7.03665 6.43225C7.87161 6.98564 8.28909 7.81897 8.28909 8.93225C8.28909 9.25126 8.475 9.53935 8.84682 9.79651C9.21864 10.0537 9.65895 10.1823 10.1678 10.1823C10.3374 10.1823 10.5363 10.1497 10.7646 10.0846C10.7059 10.3125 10.5624 10.4899 10.3341 10.6168C10.1058 10.7438 9.8416 10.8073 9.54154 10.8073ZM3.90553 7.68225C3.88596 7.78642 3.85987 7.92151 3.82725 8.08752C3.79464 8.25354 3.72451 8.50582 3.61688 8.84436C3.50925 9.1829 3.39672 9.42053 3.27931 9.55725H4.53175C4.53175 9.2773 4.49914 9.03479 4.43391 8.82971C4.36867 8.62463 4.29692 8.47652 4.21864 8.38538C4.14036 8.29423 4.06861 8.18844 4.00338 8.06799C3.93815 7.94755 3.90553 7.81897 3.90553 7.68225Z" fill="#818AF9"/>
</g>
<defs>
<clipPath id="clip0_0_74">
<rect width="10" height="10" fill="white" transform="translate(0.770386 0.807251)"/>
</clipPath>
</defs>
</svg>
